<svg version="1.1" id="Layer_1" xmlns="http://www.w3.org/2000/svg" xmlns:xlink="http://www.w3.org/1999/xlink" x="0px" y="0px"
	 width="100%" viewBox="0 0 300 300" enable-background="new 0 0 300 300" xml:space="preserve">
<path fill="#21E1B8" opacity="1.000000" stroke="none" 
	d="
M175.000000,301.000000 
	C116.666679,301.000000 58.833355,301.000000 1.000023,301.000000 
	C1.000015,201.000031 1.000015,101.000053 1.000008,1.000064 
	C100.999947,1.000042 200.999893,1.000042 300.999878,1.000021 
	C300.999939,100.999939 300.999939,200.999878 300.999969,300.999908 
	C259.166656,301.000000 217.333328,301.000000 175.000000,301.000000 
M111.277275,187.854431 
	C113.177513,187.260193 115.089447,186.700714 116.975990,186.065796 
	C125.739250,183.116516 133.915878,179.143829 140.339554,172.256409 
	C149.333420,162.613281 147.488937,150.743408 136.015396,144.397400 
	C133.747665,143.143127 131.368011,142.091232 129.604065,141.223495 
	C135.546890,137.209702 141.675339,133.560837 147.211761,129.166122 
	C151.183350,126.013557 154.015686,121.666626 152.455124,116.044716 
	C150.859451,110.296333 146.237473,107.896515 140.970886,106.983604 
	C120.798508,103.486931 102.790932,108.607063 86.884995,121.315422 
	C85.362915,122.531517 83.636345,124.168358 83.203033,125.908302 
	C82.587959,128.378113 82.114128,132.628571 83.327934,133.412857 
	C85.313828,134.696014 88.737167,134.042892 91.492599,133.704773 
	C92.596329,133.569305 93.456436,131.979385 94.565048,131.265076 
	C100.830673,127.227921 106.739632,122.247215 113.548111,119.556961 
	C119.821808,117.078018 127.053276,116.836235 133.917328,116.171890 
	C135.593307,116.009682 138.222809,117.667496 139.020218,119.209305 
	C139.576050,120.284035 138.231339,123.195877 136.908920,124.234238 
	C132.164536,127.959557 127.068474,131.236984 123.111015,133.985336 
	C120.371811,131.708588 118.758286,129.293884 117.090858,129.256058 
	C115.052673,129.209839 112.638458,130.804306 110.998566,132.341782 
	C109.362495,133.875671 108.357246,136.151474 107.292068,138.213898 
	C101.112793,150.178421 94.953011,162.153580 88.895996,174.180222 
	C87.602470,176.748627 86.155907,178.210052 82.962143,178.411957 
	C79.665611,178.620361 75.224731,178.792526 75.258469,183.645447 
	C75.289238,188.073380 79.442566,188.686447 82.727104,189.741272 
	C83.653053,190.038620 84.715073,190.087479 85.695992,190.010910 
	C93.952850,189.366364 102.205368,188.666153 111.277275,187.854431 
M233.113327,129.014038 
	C237.247391,125.893661 240.900513,122.312027 239.683365,116.593254 
	C238.450485,110.800728 233.710007,108.479713 228.529022,107.109673 
	C226.139008,106.477676 223.594711,105.893784 221.165207,106.038879 
	C210.569977,106.671638 199.784744,106.570381 189.466156,108.680359 
	C179.688110,110.679810 170.341934,114.937576 160.945923,118.565002 
	C158.315781,119.580383 156.157883,121.873146 157.912659,125.361900 
	C159.607773,128.731995 162.206772,128.259811 165.138458,127.238464 
	C171.718567,124.946053 178.286469,122.573952 184.983734,120.672401 
	C196.709671,117.343048 208.694168,115.363411 220.912399,116.431786 
	C226.600082,116.929123 227.039154,118.290459 224.710541,123.526863 
	C222.700699,128.046402 224.003052,130.042236 229.020874,129.973221 
	C230.146439,129.957764 231.266693,129.555984 233.113327,129.014038 
M175.405838,153.861282 
	C170.284958,163.746567 165.001617,173.553680 160.177216,183.581604 
	C159.185715,185.642502 159.909317,188.528519 159.842392,191.034225 
	C162.526230,191.084976 165.867966,192.159256 167.744064,190.953354 
	C170.771027,189.007690 173.534576,185.918701 175.185318,182.687332 
	C184.251175,164.940521 192.951004,147.006592 201.750046,129.123871 
	C202.258713,128.090073 202.937378,126.898499 202.824554,125.857552 
	C202.660217,124.341057 202.227524,122.099129 201.217728,121.618095 
	C199.930359,121.004822 197.664078,121.365738 196.347198,122.170174 
	C194.721451,123.163284 193.410187,124.900154 192.358200,126.565285 
	C186.769012,135.412155 181.303604,144.337250 175.405838,153.861282 
M149.519592,193.319794 
	C153.405441,191.656021 155.054428,188.666733 154.287704,184.573685 
	C153.505035,180.395370 149.438812,177.615921 145.502304,178.282883 
	C141.171875,179.016586 138.153976,183.088211 138.828857,187.286453 
	C139.585983,191.996353 143.084000,194.218933 149.519592,193.319794 
M209.417206,192.845947 
	C213.973602,188.107651 213.941376,182.741806 209.285934,179.796524 
	C205.918518,177.666122 202.501968,177.907547 199.674408,180.576279 
	C196.702057,183.381622 196.061172,186.994171 198.366287,190.513474 
	C200.916168,194.406448 204.563477,195.197327 209.417206,192.845947 
z"/>
<path fill="#FBFEFE" opacity="1.000000" stroke="none" 
	d="
M110.868233,187.918549 
	C102.205368,188.666153 93.952850,189.366364 85.695992,190.010910 
	C84.715073,190.087479 83.653053,190.038620 82.727104,189.741272 
	C79.442566,188.686447 75.289238,188.073380 75.258469,183.645447 
	C75.224731,178.792526 79.665611,178.620361 82.962143,178.411957 
	C86.155907,178.210052 87.602470,176.748627 88.895996,174.180222 
	C94.953011,162.153580 101.112793,150.178421 107.292068,138.213898 
	C108.357246,136.151474 109.362495,133.875671 110.998566,132.341782 
	C112.638458,130.804306 115.052673,129.209839 117.090858,129.256058 
	C118.758286,129.293884 120.371811,131.708588 123.111015,133.985336 
	C127.068474,131.236984 132.164536,127.959557 136.908920,124.234238 
	C138.231339,123.195877 139.576050,120.284035 139.020218,119.209305 
	C138.222809,117.667496 135.593307,116.009682 133.917328,116.171890 
	C127.053276,116.836235 119.821808,117.078018 113.548111,119.556961 
	C106.739632,122.247215 100.830673,127.227921 94.565048,131.265076 
	C93.456436,131.979385 92.596329,133.569305 91.492599,133.704773 
	C88.737167,134.042892 85.313828,134.696014 83.327934,133.412857 
	C82.114128,132.628571 82.587959,128.378113 83.203033,125.908302 
	C83.636345,124.168358 85.362915,122.531517 86.884995,121.315422 
	C102.790932,108.607063 120.798508,103.486931 140.970886,106.983604 
	C146.237473,107.896515 150.859451,110.296333 152.455124,116.044716 
	C154.015686,121.666626 151.183350,126.013557 147.211761,129.166122 
	C141.675339,133.560837 135.546890,137.209702 129.604065,141.223495 
	C131.368011,142.091232 133.747665,143.143127 136.015396,144.397400 
	C147.488937,150.743408 149.333420,162.613281 140.339554,172.256409 
	C133.915878,179.143829 125.739250,183.116516 116.975990,186.065796 
	C115.089447,186.700714 113.177513,187.260193 110.868233,187.918549 
M109.442909,162.962814 
	C106.960503,167.775452 104.478088,172.588104 101.720505,177.934219 
	C104.327087,177.541107 106.306480,177.400406 108.203545,176.928665 
	C115.681847,175.069031 122.964912,172.710297 128.215744,166.593384 
	C132.552856,161.540924 132.228333,156.412399 126.999985,152.297150 
	C124.143158,150.048538 120.680275,148.569916 117.373840,146.677139 
	C114.580559,152.466843 112.203613,157.393585 109.442909,162.962814 
z"/>
<path fill="#FBFEFE" opacity="1.000000" stroke="none" 
	d="
M232.751358,129.173035 
	C231.266693,129.555984 230.146439,129.957764 229.020874,129.973221 
	C224.003052,130.042236 222.700699,128.046402 224.710541,123.526863 
	C227.039154,118.290459 226.600082,116.929123 220.912399,116.431786 
	C208.694168,115.363411 196.709671,117.343048 184.983734,120.672401 
	C178.286469,122.573952 171.718567,124.946053 165.138458,127.238464 
	C162.206772,128.259811 159.607773,128.731995 157.912659,125.361900 
	C156.157883,121.873146 158.315781,119.580383 160.945923,118.565002 
	C170.341934,114.937576 179.688110,110.679810 189.466156,108.680359 
	C199.784744,106.570381 210.569977,106.671638 221.165207,106.038879 
	C223.594711,105.893784 226.139008,106.477676 228.529022,107.109673 
	C233.710007,108.479713 238.450485,110.800728 239.683365,116.593254 
	C240.900513,122.312027 237.247391,125.893661 232.751358,129.173035 
z"/>
<path fill="#FCFFFE" opacity="1.000000" stroke="none" 
	d="
M175.600586,153.548264 
	C181.303604,144.337250 186.769012,135.412155 192.358200,126.565285 
	C193.410187,124.900154 194.721451,123.163284 196.347198,122.170174 
	C197.664078,121.365738 199.930359,121.004822 201.217728,121.618095 
	C202.227524,122.099129 202.660217,124.341057 202.824554,125.857552 
	C202.937378,126.898499 202.258713,128.090073 201.750046,129.123871 
	C192.951004,147.006592 184.251175,164.940521 175.185318,182.687332 
	C173.534576,185.918701 170.771027,189.007690 167.744064,190.953354 
	C165.867966,192.159256 162.526230,191.084976 159.842377,191.034225 
	C159.909317,188.528519 159.185715,185.642502 160.177216,183.581604 
	C165.001617,173.553680 170.284958,163.746567 175.600586,153.548264 
z"/>
<path fill="#F4FEFC" opacity="1.000000" stroke="none" 
	d="
M149.157166,193.469208 
	C143.084000,194.218933 139.585983,191.996353 138.828857,187.286453 
	C138.153976,183.088211 141.171875,179.016586 145.502304,178.282883 
	C149.438812,177.615921 153.505035,180.395370 154.287704,184.573685 
	C155.054428,188.666733 153.405441,191.656021 149.157166,193.469208 
z"/>
<path fill="#F1FAF8" opacity="1.000000" stroke="none" 
	d="
M209.100189,193.023575 
	C204.563477,195.197327 200.916168,194.406448 198.366287,190.513474 
	C196.061172,186.994171 196.702057,183.381622 199.674408,180.576279 
	C202.501968,177.907547 205.918518,177.666122 209.285934,179.796524 
	C213.941376,182.741806 213.973602,188.107651 209.100189,193.023575 
z"/>
<path fill="#24E1B9" opacity="1.000000" stroke="none" 
	d="
M109.634781,162.641571 
	C112.203613,157.393585 114.580559,152.466843 117.373840,146.677139 
	C120.680275,148.569916 124.143158,150.048538 126.999985,152.297150 
	C132.228333,156.412399 132.552856,161.540924 128.215744,166.593384 
	C122.964912,172.710297 115.681847,175.069031 108.203545,176.928665 
	C106.306480,177.400406 104.327087,177.541107 101.720505,177.934219 
	C104.478088,172.588104 106.960503,167.775452 109.634781,162.641571 
z"/>
</svg>